<mxfile host="Electron" modified="2023-07-30T05:14:41.187Z" agent="Mozilla/5.0 (Windows NT 10.0; Win64; x64) AppleWebKit/537.36 (KHTML, like Gecko) draw.io/21.6.1 Chrome/112.0.5615.204 Electron/24.6.1 Safari/537.36" etag="3CuMVPhCWhwymDUM3JqT" version="21.6.1" type="device" pages="3">
  <diagram name="Decoder" id="b5b7bab2-c9e2-2cf4-8b2a-24fd1a2a6d21">
    <mxGraphModel dx="1369" dy="2159" grid="1" gridSize="10" guides="1" tooltips="1" connect="1" arrows="1" fold="1" page="1" pageScale="1" pageWidth="827" pageHeight="1169" background="none" math="0" shadow="0">
      <root>
        <mxCell id="0" />
        <mxCell id="1" parent="0" />
        <mxCell id="W0LOnqKOgB336WQRappB-2" value="CL Adder&lt;br&gt;8-bit iin/out" style="rounded=0;whiteSpace=wrap;html=1;" parent="1" vertex="1">
          <mxGeometry x="100" y="-800" width="350" height="60" as="geometry" />
        </mxCell>
        <mxCell id="W0LOnqKOgB336WQRappB-3" value="CL Subtractor&lt;br&gt;&amp;nbsp;8-bit iin/out" style="rounded=0;whiteSpace=wrap;html=1;" parent="1" vertex="1">
          <mxGeometry x="100" y="-740" width="350" height="60" as="geometry" />
        </mxCell>
        <mxCell id="W0LOnqKOgB336WQRappB-4" value="Booth Multiplier&lt;br&gt;&amp;nbsp;8-bit iin/ 16-bit out" style="rounded=0;whiteSpace=wrap;html=1;" parent="1" vertex="1">
          <mxGeometry x="100" y="-500" width="350" height="60" as="geometry" />
        </mxCell>
        <mxCell id="W0LOnqKOgB336WQRappB-67" value="" style="edgeStyle=orthogonalEdgeStyle;rounded=0;orthogonalLoop=1;jettySize=auto;html=1;" parent="1" source="W0LOnqKOgB336WQRappB-5" target="W0LOnqKOgB336WQRappB-66" edge="1">
          <mxGeometry relative="1" as="geometry" />
        </mxCell>
        <mxCell id="W0LOnqKOgB336WQRappB-5" value="Riipple Adder&lt;br&gt;8-bit iin/out" style="rounded=0;whiteSpace=wrap;html=1;" parent="1" vertex="1">
          <mxGeometry x="100" y="-920" width="350" height="60" as="geometry" />
        </mxCell>
        <mxCell id="W0LOnqKOgB336WQRappB-6" value="Ripple Subtractor&lt;br&gt;&amp;nbsp;8-bit iin/out" style="rounded=0;whiteSpace=wrap;html=1;" parent="1" vertex="1">
          <mxGeometry x="100" y="-860" width="350" height="60" as="geometry" />
        </mxCell>
        <mxCell id="W0LOnqKOgB336WQRappB-7" value="Array&amp;nbsp;Multiplier&lt;br&gt;&amp;nbsp;8-bit iin// 16-bit&amp;nbsp; out" style="rounded=0;whiteSpace=wrap;html=1;" parent="1" vertex="1">
          <mxGeometry x="100" y="-440" width="350" height="60" as="geometry" />
        </mxCell>
        <mxCell id="W0LOnqKOgB336WQRappB-8" value="Booth Multiplier&lt;br&gt;&amp;nbsp;8-bit iin// 16-bit&amp;nbsp;out" style="rounded=0;whiteSpace=wrap;html=1;" parent="1" vertex="1">
          <mxGeometry x="100" y="-380" width="350" height="60" as="geometry" />
        </mxCell>
        <mxCell id="W0LOnqKOgB336WQRappB-9" value="LFSR&lt;br&gt;8-bit iin/out 8 bit Result out" style="rounded=0;whiteSpace=wrap;html=1;" parent="1" vertex="1">
          <mxGeometry x="100" y="-620" width="350" height="60" as="geometry" />
        </mxCell>
        <mxCell id="W0LOnqKOgB336WQRappB-10" value="Wallis&amp;nbsp;Multiplier&lt;br&gt;&amp;nbsp;8-bit iin/ 16-bit&amp;nbsp;/out" style="rounded=0;whiteSpace=wrap;html=1;" parent="1" vertex="1">
          <mxGeometry x="100" y="-320" width="350" height="60" as="geometry" />
        </mxCell>
        <mxCell id="W0LOnqKOgB336WQRappB-11" value="Reciprocoal Division&lt;br&gt;8-bit iin// 16-bit&amp;nbsp;out &lt;br&gt;8-bit Remainder" style="rounded=0;whiteSpace=wrap;html=1;" parent="1" vertex="1">
          <mxGeometry x="100" y="-140" width="350" height="60" as="geometry" />
        </mxCell>
        <mxCell id="W0LOnqKOgB336WQRappB-12" value="SRT Divider&lt;br&gt;8-bit iin// 16-bit&amp;nbsp;out &lt;br&gt;8-bit Remainder" style="rounded=0;whiteSpace=wrap;html=1;" parent="1" vertex="1">
          <mxGeometry x="100" y="-80" width="350" height="60" as="geometry" />
        </mxCell>
        <mxCell id="W0LOnqKOgB336WQRappB-13" value="Non-Restoring Division&lt;br&gt;8-bit iin// 16-bit&amp;nbsp;out &lt;br&gt;8-bit Remainder" style="rounded=0;whiteSpace=wrap;html=1;" parent="1" vertex="1">
          <mxGeometry x="100" y="-260" width="350" height="60" as="geometry" />
        </mxCell>
        <mxCell id="W0LOnqKOgB336WQRappB-14" value="Pipeline Division&lt;br&gt;8-bit iin// 16-bit&amp;nbsp;out &lt;br&gt;8-bit Remainder" style="rounded=0;whiteSpace=wrap;html=1;" parent="1" vertex="1">
          <mxGeometry x="100" y="-200" width="350" height="60" as="geometry" />
        </mxCell>
        <mxCell id="W0LOnqKOgB336WQRappB-15" value="Leading 1 Trailing 1&lt;br&gt;8-bit iin/out 8 bit Remainder&amp;nbsp;out (for trailing)" style="rounded=0;whiteSpace=wrap;html=1;" parent="1" vertex="1">
          <mxGeometry x="100" y="-680" width="350" height="60" as="geometry" />
        </mxCell>
        <mxCell id="W0LOnqKOgB336WQRappB-65" value="" style="edgeStyle=orthogonalEdgeStyle;rounded=0;orthogonalLoop=1;jettySize=auto;html=1;" parent="1" source="W0LOnqKOgB336WQRappB-17" target="W0LOnqKOgB336WQRappB-64" edge="1">
          <mxGeometry relative="1" as="geometry" />
        </mxCell>
        <mxCell id="W0LOnqKOgB336WQRappB-17" value="A, B, addends&lt;br&gt;C Result" style="shape=process;whiteSpace=wrap;html=1;backgroundOutline=1;" parent="1" vertex="1">
          <mxGeometry x="460" y="-920" width="190" height="60" as="geometry" />
        </mxCell>
        <mxCell id="W0LOnqKOgB336WQRappB-18" value="A, B, addends&lt;br&gt;C Result" style="shape=process;whiteSpace=wrap;html=1;backgroundOutline=1;" parent="1" vertex="1">
          <mxGeometry x="460" y="-860" width="190" height="60" as="geometry" />
        </mxCell>
        <mxCell id="W0LOnqKOgB336WQRappB-19" value="A, B, addends&lt;br&gt;C Result" style="shape=process;whiteSpace=wrap;html=1;backgroundOutline=1;" parent="1" vertex="1">
          <mxGeometry x="460" y="-800" width="190" height="60" as="geometry" />
        </mxCell>
        <mxCell id="W0LOnqKOgB336WQRappB-20" value="A, B, subtractends&lt;br&gt;C Result" style="shape=process;whiteSpace=wrap;html=1;backgroundOutline=1;" parent="1" vertex="1">
          <mxGeometry x="460" y="-740" width="190" height="60" as="geometry" />
        </mxCell>
        <mxCell id="W0LOnqKOgB336WQRappB-21" value="A, B, mutiplicands&lt;br&gt;C Result" style="shape=process;whiteSpace=wrap;html=1;backgroundOutline=1;" parent="1" vertex="1">
          <mxGeometry x="460" y="-500" width="190" height="60" as="geometry" />
        </mxCell>
        <mxCell id="W0LOnqKOgB336WQRappB-22" value="A, B, mutiplicands&lt;br&gt;C Result" style="shape=process;whiteSpace=wrap;html=1;backgroundOutline=1;" parent="1" vertex="1">
          <mxGeometry x="460" y="-440" width="190" height="60" as="geometry" />
        </mxCell>
        <mxCell id="W0LOnqKOgB336WQRappB-23" value="A, B, mutiplicands&lt;br&gt;C Result" style="shape=process;whiteSpace=wrap;html=1;backgroundOutline=1;" parent="1" vertex="1">
          <mxGeometry x="460" y="-380" width="190" height="60" as="geometry" />
        </mxCell>
        <mxCell id="W0LOnqKOgB336WQRappB-24" value="A, B, mutiplicands&lt;br&gt;C Result" style="shape=process;whiteSpace=wrap;html=1;backgroundOutline=1;" parent="1" vertex="1">
          <mxGeometry x="460" y="-320" width="190" height="60" as="geometry" />
        </mxCell>
        <mxCell id="W0LOnqKOgB336WQRappB-25" value="A, B, Divisor Dividend&lt;br&gt;C Result" style="shape=process;whiteSpace=wrap;html=1;backgroundOutline=1;" parent="1" vertex="1">
          <mxGeometry x="460" y="-260" width="190" height="60" as="geometry" />
        </mxCell>
        <mxCell id="W0LOnqKOgB336WQRappB-26" value="A, B, Divisor Dividend&lt;br&gt;C Result" style="shape=process;whiteSpace=wrap;html=1;backgroundOutline=1;" parent="1" vertex="1">
          <mxGeometry x="460" y="-200" width="190" height="60" as="geometry" />
        </mxCell>
        <mxCell id="W0LOnqKOgB336WQRappB-27" value="A, B, Divisor Dividend&lt;br&gt;C Result" style="shape=process;whiteSpace=wrap;html=1;backgroundOutline=1;" parent="1" vertex="1">
          <mxGeometry x="460" y="-140" width="190" height="60" as="geometry" />
        </mxCell>
        <mxCell id="W0LOnqKOgB336WQRappB-28" value="A, B, Divisor Dividend&lt;br&gt;C Result" style="shape=process;whiteSpace=wrap;html=1;backgroundOutline=1;" parent="1" vertex="1">
          <mxGeometry x="460" y="-80" width="190" height="60" as="geometry" />
        </mxCell>
        <mxCell id="W0LOnqKOgB336WQRappB-29" value="A Value, C Le&lt;br&gt;ading/&lt;br&gt;Trailing Result" style="shape=process;whiteSpace=wrap;html=1;backgroundOutline=1;" parent="1" vertex="1">
          <mxGeometry x="460" y="-680" width="190" height="60" as="geometry" />
        </mxCell>
        <mxCell id="W0LOnqKOgB336WQRappB-30" value="A[0] enable, a[1] load&lt;br&gt;B load data&amp;nbsp;&lt;br&gt;Result = lfsr_data" style="shape=process;whiteSpace=wrap;html=1;backgroundOutline=1;" parent="1" vertex="1">
          <mxGeometry x="460" y="-620" width="190" height="60" as="geometry" />
        </mxCell>
        <mxCell id="W0LOnqKOgB336WQRappB-63" value="" style="edgeStyle=orthogonalEdgeStyle;rounded=0;orthogonalLoop=1;jettySize=auto;html=1;" parent="1" source="W0LOnqKOgB336WQRappB-33" target="W0LOnqKOgB336WQRappB-62" edge="1">
          <mxGeometry relative="1" as="geometry" />
        </mxCell>
        <mxCell id="W0LOnqKOgB336WQRappB-33" value="0000" style="ellipse;whiteSpace=wrap;html=1;aspect=fixed;" parent="1" vertex="1">
          <mxGeometry x="650" y="-920" width="60" height="60" as="geometry" />
        </mxCell>
        <mxCell id="W0LOnqKOgB336WQRappB-34" value="0001" style="ellipse;whiteSpace=wrap;html=1;aspect=fixed;" parent="1" vertex="1">
          <mxGeometry x="650" y="-860" width="60" height="60" as="geometry" />
        </mxCell>
        <mxCell id="W0LOnqKOgB336WQRappB-35" value="0010" style="ellipse;whiteSpace=wrap;html=1;aspect=fixed;" parent="1" vertex="1">
          <mxGeometry x="650" y="-800" width="60" height="60" as="geometry" />
        </mxCell>
        <mxCell id="W0LOnqKOgB336WQRappB-36" value="0011" style="ellipse;whiteSpace=wrap;html=1;aspect=fixed;" parent="1" vertex="1">
          <mxGeometry x="650" y="-740" width="60" height="60" as="geometry" />
        </mxCell>
        <mxCell id="W0LOnqKOgB336WQRappB-50" value="0100" style="ellipse;whiteSpace=wrap;html=1;aspect=fixed;" parent="1" vertex="1">
          <mxGeometry x="650" y="-680" width="60" height="60" as="geometry" />
        </mxCell>
        <mxCell id="W0LOnqKOgB336WQRappB-51" value="0101" style="ellipse;whiteSpace=wrap;html=1;aspect=fixed;" parent="1" vertex="1">
          <mxGeometry x="650" y="-620" width="60" height="60" as="geometry" />
        </mxCell>
        <mxCell id="W0LOnqKOgB336WQRappB-54" value="1000" style="ellipse;whiteSpace=wrap;html=1;aspect=fixed;" parent="1" vertex="1">
          <mxGeometry x="650" y="-500" width="60" height="60" as="geometry" />
        </mxCell>
        <mxCell id="W0LOnqKOgB336WQRappB-55" value="1001" style="ellipse;whiteSpace=wrap;html=1;aspect=fixed;" parent="1" vertex="1">
          <mxGeometry x="650" y="-440" width="60" height="60" as="geometry" />
        </mxCell>
        <mxCell id="W0LOnqKOgB336WQRappB-56" value="1010" style="ellipse;whiteSpace=wrap;html=1;aspect=fixed;" parent="1" vertex="1">
          <mxGeometry x="650" y="-380" width="60" height="60" as="geometry" />
        </mxCell>
        <mxCell id="W0LOnqKOgB336WQRappB-57" value="1011" style="ellipse;whiteSpace=wrap;html=1;aspect=fixed;" parent="1" vertex="1">
          <mxGeometry x="650" y="-320" width="60" height="60" as="geometry" />
        </mxCell>
        <mxCell id="W0LOnqKOgB336WQRappB-58" value="1100" style="ellipse;whiteSpace=wrap;html=1;aspect=fixed;" parent="1" vertex="1">
          <mxGeometry x="650" y="-260" width="60" height="60" as="geometry" />
        </mxCell>
        <mxCell id="W0LOnqKOgB336WQRappB-59" value="1101" style="ellipse;whiteSpace=wrap;html=1;aspect=fixed;" parent="1" vertex="1">
          <mxGeometry x="650" y="-200" width="60" height="60" as="geometry" />
        </mxCell>
        <mxCell id="W0LOnqKOgB336WQRappB-60" value="1110" style="ellipse;whiteSpace=wrap;html=1;aspect=fixed;" parent="1" vertex="1">
          <mxGeometry x="650" y="-140" width="60" height="60" as="geometry" />
        </mxCell>
        <mxCell id="W0LOnqKOgB336WQRappB-61" value="1111" style="ellipse;whiteSpace=wrap;html=1;aspect=fixed;" parent="1" vertex="1">
          <mxGeometry x="650" y="-80" width="60" height="60" as="geometry" />
        </mxCell>
        <mxCell id="W0LOnqKOgB336WQRappB-62" value="Encoding" style="whiteSpace=wrap;html=1;" parent="1" vertex="1">
          <mxGeometry x="650" y="-1060" width="60" height="60" as="geometry" />
        </mxCell>
        <mxCell id="W0LOnqKOgB336WQRappB-64" value="Output Mapping" style="whiteSpace=wrap;html=1;" parent="1" vertex="1">
          <mxGeometry x="495" y="-1060" width="120" height="60" as="geometry" />
        </mxCell>
        <mxCell id="W0LOnqKOgB336WQRappB-66" value="Function" style="whiteSpace=wrap;html=1;rounded=0;" parent="1" vertex="1">
          <mxGeometry x="215" y="-1060" width="120" height="60" as="geometry" />
        </mxCell>
        <mxCell id="QPB-Tg6rFqS1w99HlmaH-1" value="Universal Shift Register&lt;br&gt;8-bit iin/out 8 bit Result out" style="rounded=0;whiteSpace=wrap;html=1;" parent="1" vertex="1">
          <mxGeometry x="100" y="-560" width="350" height="60" as="geometry" />
        </mxCell>
        <mxCell id="QPB-Tg6rFqS1w99HlmaH-2" value="A[0] enable, a[1] load&lt;br&gt;B load data&amp;nbsp;&lt;br&gt;Result = shift data" style="shape=process;whiteSpace=wrap;html=1;backgroundOutline=1;" parent="1" vertex="1">
          <mxGeometry x="460" y="-560" width="190" height="60" as="geometry" />
        </mxCell>
        <mxCell id="QPB-Tg6rFqS1w99HlmaH-3" value="0110" style="ellipse;whiteSpace=wrap;html=1;aspect=fixed;" parent="1" vertex="1">
          <mxGeometry x="650" y="-560" width="60" height="60" as="geometry" />
        </mxCell>
      </root>
    </mxGraphModel>
  </diagram>
  <diagram id="CDE1ZuvUUULAe-xZ_1jG" name="Final Testbench 7.0">
    <mxGraphModel dx="1369" dy="1063" grid="1" gridSize="10" guides="1" tooltips="1" connect="1" arrows="1" fold="1" page="1" pageScale="1" pageWidth="850" pageHeight="1100" math="0" shadow="0">
      <root>
        <mxCell id="0" />
        <mxCell id="1" parent="0" />
        <mxCell id="boRD7rR-9Zqy8ZGBWQ_8-1" value="uvm_sequence&lt;br&gt;&lt;br&gt;&lt;div style=&quot;text-align: left;&quot;&gt;&lt;span style=&quot;background-color: initial;&quot;&gt;def start(seqr):&lt;/span&gt;&lt;/div&gt;&lt;div style=&quot;text-align: left;&quot;&gt;&lt;span style=&quot;background-color: initial;&quot;&gt;&amp;nbsp; &amp;nbsp; start_item(seq_item)&lt;/span&gt;&lt;/div&gt;&lt;div style=&quot;text-align: left;&quot;&gt;&lt;span style=&quot;background-color: initial;&quot;&gt;&amp;nbsp; &amp;nbsp; finish_item(seq_item)&lt;/span&gt;&lt;/div&gt;" style="rounded=1;whiteSpace=wrap;html=1;" parent="1" vertex="1">
          <mxGeometry x="50" y="41" width="210" height="100" as="geometry" />
        </mxCell>
        <mxCell id="boRD7rR-9Zqy8ZGBWQ_8-5" value="" style="group" parent="1" vertex="1" connectable="0">
          <mxGeometry x="310" y="71" width="140" height="70" as="geometry" />
        </mxCell>
        <mxCell id="boRD7rR-9Zqy8ZGBWQ_8-2" value="uvm_sequencer&lt;br&gt;&lt;br&gt;seq_item_export" style="rounded=0;whiteSpace=wrap;html=1;" parent="boRD7rR-9Zqy8ZGBWQ_8-5" vertex="1">
          <mxGeometry y="-30" width="117.89" height="100" as="geometry" />
        </mxCell>
        <mxCell id="boRD7rR-9Zqy8ZGBWQ_8-4" value="" style="ellipse;whiteSpace=wrap;html=1;aspect=fixed;" parent="boRD7rR-9Zqy8ZGBWQ_8-5" vertex="1">
          <mxGeometry x="117.89473684210526" y="11" width="22.105263157894736" height="22.105263157894736" as="geometry" />
        </mxCell>
        <mxCell id="boRD7rR-9Zqy8ZGBWQ_8-6" value="uvm_driver&lt;br&gt;&lt;br&gt;seq_item_port" style="rounded=0;whiteSpace=wrap;html=1;" parent="1" vertex="1">
          <mxGeometry x="500" y="41" width="140" height="100" as="geometry" />
        </mxCell>
        <mxCell id="boRD7rR-9Zqy8ZGBWQ_8-7" value="" style="swimlane;startSize=0;" parent="1" vertex="1">
          <mxGeometry x="480" y="83" width="20" height="20" as="geometry" />
        </mxCell>
        <mxCell id="boRD7rR-9Zqy8ZGBWQ_8-8" value="BFM" style="shape=singleArrow;whiteSpace=wrap;html=1;" parent="1" vertex="1">
          <mxGeometry x="640" y="41" width="80" height="100" as="geometry" />
        </mxCell>
        <mxCell id="boRD7rR-9Zqy8ZGBWQ_8-9" value="DUT" style="whiteSpace=wrap;html=1;aspect=fixed;" parent="1" vertex="1">
          <mxGeometry x="720" y="45" width="95" height="95" as="geometry" />
        </mxCell>
        <mxCell id="boRD7rR-9Zqy8ZGBWQ_8-11" value="" style="endArrow=none;dashed=1;html=1;rounded=0;exitX=1;exitY=0.5;exitDx=0;exitDy=0;entryX=0;entryY=0.5;entryDx=0;entryDy=0;" parent="1" source="boRD7rR-9Zqy8ZGBWQ_8-1" target="boRD7rR-9Zqy8ZGBWQ_8-2" edge="1">
          <mxGeometry width="50" height="50" relative="1" as="geometry">
            <mxPoint x="300" y="220" as="sourcePoint" />
            <mxPoint x="350" y="170" as="targetPoint" />
          </mxGeometry>
        </mxCell>
        <mxCell id="boRD7rR-9Zqy8ZGBWQ_8-12" value="" style="endArrow=none;dashed=1;html=1;rounded=0;exitX=1;exitY=0.5;exitDx=0;exitDy=0;entryX=0;entryY=0.5;entryDx=0;entryDy=0;" parent="1" source="boRD7rR-9Zqy8ZGBWQ_8-4" target="boRD7rR-9Zqy8ZGBWQ_8-7" edge="1">
          <mxGeometry width="50" height="50" relative="1" as="geometry">
            <mxPoint x="470" y="280" as="sourcePoint" />
            <mxPoint x="520" y="230" as="targetPoint" />
          </mxGeometry>
        </mxCell>
      </root>
    </mxGraphModel>
  </diagram>
  <diagram id="IXxhcwAiy9ynOhHVEgyq" name="UVM Predefined Classes">
    <mxGraphModel dx="1369" dy="1063" grid="1" gridSize="10" guides="1" tooltips="1" connect="1" arrows="1" fold="1" page="1" pageScale="1" pageWidth="850" pageHeight="1100" math="0" shadow="0">
      <root>
        <mxCell id="0" />
        <mxCell id="1" parent="0" />
        <mxCell id="yfFhtFqqx9GAyvI06Zvg-1" value="uvm_object" style="rounded=0;whiteSpace=wrap;html=1;" vertex="1" parent="1">
          <mxGeometry x="80" y="40" width="120" height="40" as="geometry" />
        </mxCell>
        <mxCell id="yfFhtFqqx9GAyvI06Zvg-2" value="uvm_report_object" style="rounded=0;whiteSpace=wrap;html=1;" vertex="1" parent="1">
          <mxGeometry x="80" y="120" width="120" height="40" as="geometry" />
        </mxCell>
        <mxCell id="yfFhtFqqx9GAyvI06Zvg-3" value="uvm_component" style="rounded=0;whiteSpace=wrap;html=1;" vertex="1" parent="1">
          <mxGeometry x="80" y="200" width="120" height="40" as="geometry" />
        </mxCell>
        <mxCell id="yfFhtFqqx9GAyvI06Zvg-4" value="uvm_test" style="rounded=0;whiteSpace=wrap;html=1;" vertex="1" parent="1">
          <mxGeometry x="200" y="280" width="120" height="40" as="geometry" />
        </mxCell>
        <mxCell id="yfFhtFqqx9GAyvI06Zvg-5" value="uvm_env" style="rounded=0;whiteSpace=wrap;html=1;" vertex="1" parent="1">
          <mxGeometry x="200" y="360" width="120" height="40" as="geometry" />
        </mxCell>
        <mxCell id="yfFhtFqqx9GAyvI06Zvg-6" value="uvm_monitor" style="rounded=0;whiteSpace=wrap;html=1;" vertex="1" parent="1">
          <mxGeometry x="200" y="440" width="120" height="40" as="geometry" />
        </mxCell>
        <mxCell id="yfFhtFqqx9GAyvI06Zvg-7" value="uvm_scoreboard" style="rounded=0;whiteSpace=wrap;html=1;" vertex="1" parent="1">
          <mxGeometry x="200" y="520" width="120" height="40" as="geometry" />
        </mxCell>
        <mxCell id="yfFhtFqqx9GAyvI06Zvg-8" value="" style="endArrow=classic;html=1;rounded=0;entryX=0.5;entryY=1;entryDx=0;entryDy=0;" edge="1" parent="1" source="yfFhtFqqx9GAyvI06Zvg-2" target="yfFhtFqqx9GAyvI06Zvg-1">
          <mxGeometry width="50" height="50" relative="1" as="geometry">
            <mxPoint x="380" y="400" as="sourcePoint" />
            <mxPoint x="430" y="350" as="targetPoint" />
          </mxGeometry>
        </mxCell>
        <mxCell id="yfFhtFqqx9GAyvI06Zvg-9" value="" style="endArrow=classic;html=1;rounded=0;entryX=0.5;entryY=1;entryDx=0;entryDy=0;" edge="1" parent="1">
          <mxGeometry width="50" height="50" relative="1" as="geometry">
            <mxPoint x="139.5" y="200" as="sourcePoint" />
            <mxPoint x="139.5" y="160" as="targetPoint" />
          </mxGeometry>
        </mxCell>
        <mxCell id="yfFhtFqqx9GAyvI06Zvg-10" value="uvm_test" style="rounded=0;whiteSpace=wrap;html=1;" vertex="1" parent="1">
          <mxGeometry x="360" y="320" width="200" height="40" as="geometry" />
        </mxCell>
        <mxCell id="yfFhtFqqx9GAyvI06Zvg-11" value="uvm_env" style="rounded=0;whiteSpace=wrap;html=1;" vertex="1" parent="1">
          <mxGeometry x="360" y="400" width="200" height="40" as="geometry" />
        </mxCell>
        <mxCell id="yfFhtFqqx9GAyvI06Zvg-12" value="uvm_sequencer_base" style="rounded=0;whiteSpace=wrap;html=1;" vertex="1" parent="1">
          <mxGeometry x="360" y="480" width="200" height="40" as="geometry" />
        </mxCell>
        <mxCell id="yfFhtFqqx9GAyvI06Zvg-13" value="uvm_sequencer_param_baserd" style="rounded=0;whiteSpace=wrap;html=1;" vertex="1" parent="1">
          <mxGeometry x="360" y="560" width="200" height="40" as="geometry" />
        </mxCell>
        <mxCell id="yfFhtFqqx9GAyvI06Zvg-14" value="uvm_sequencer" style="rounded=0;whiteSpace=wrap;html=1;" vertex="1" parent="1">
          <mxGeometry x="280" y="640" width="160" height="40" as="geometry" />
        </mxCell>
        <mxCell id="yfFhtFqqx9GAyvI06Zvg-15" value="uvm_push_sequencer" style="rounded=0;whiteSpace=wrap;html=1;" vertex="1" parent="1">
          <mxGeometry x="480" y="640" width="160" height="40" as="geometry" />
        </mxCell>
        <mxCell id="yfFhtFqqx9GAyvI06Zvg-18" value="" style="endArrow=classic;html=1;rounded=0;entryX=0.5;entryY=1;entryDx=0;entryDy=0;" edge="1" parent="1">
          <mxGeometry width="50" height="50" relative="1" as="geometry">
            <mxPoint x="400" y="640" as="sourcePoint" />
            <mxPoint x="400" y="600" as="targetPoint" />
          </mxGeometry>
        </mxCell>
        <mxCell id="yfFhtFqqx9GAyvI06Zvg-19" value="" style="endArrow=classic;html=1;rounded=0;entryX=0.5;entryY=1;entryDx=0;entryDy=0;" edge="1" parent="1">
          <mxGeometry width="50" height="50" relative="1" as="geometry">
            <mxPoint x="520" y="640" as="sourcePoint" />
            <mxPoint x="520" y="600" as="targetPoint" />
          </mxGeometry>
        </mxCell>
        <mxCell id="yfFhtFqqx9GAyvI06Zvg-20" value="uvm_subscriber" style="rounded=0;whiteSpace=wrap;html=1;" vertex="1" parent="1">
          <mxGeometry x="280" y="720" width="160" height="40" as="geometry" />
        </mxCell>
        <mxCell id="yfFhtFqqx9GAyvI06Zvg-21" value="uvm_random_stimulus" style="rounded=0;whiteSpace=wrap;html=1;" vertex="1" parent="1">
          <mxGeometry x="280" y="800" width="160" height="40" as="geometry" />
        </mxCell>
        <mxCell id="yfFhtFqqx9GAyvI06Zvg-22" value="" style="endArrow=classic;html=1;rounded=0;entryX=0.5;entryY=1;entryDx=0;entryDy=0;" edge="1" parent="1" target="yfFhtFqqx9GAyvI06Zvg-3">
          <mxGeometry width="50" height="50" relative="1" as="geometry">
            <mxPoint x="140" y="820" as="sourcePoint" />
            <mxPoint x="140" y="360" as="targetPoint" />
          </mxGeometry>
        </mxCell>
        <mxCell id="yfFhtFqqx9GAyvI06Zvg-23" value="" style="endArrow=none;html=1;rounded=0;entryX=0;entryY=0.5;entryDx=0;entryDy=0;" edge="1" parent="1" target="yfFhtFqqx9GAyvI06Zvg-4">
          <mxGeometry width="50" height="50" relative="1" as="geometry">
            <mxPoint x="140" y="300" as="sourcePoint" />
            <mxPoint x="430" y="350" as="targetPoint" />
          </mxGeometry>
        </mxCell>
        <mxCell id="yfFhtFqqx9GAyvI06Zvg-24" value="" style="endArrow=none;html=1;rounded=0;entryX=0;entryY=0.5;entryDx=0;entryDy=0;" edge="1" parent="1">
          <mxGeometry width="50" height="50" relative="1" as="geometry">
            <mxPoint x="140" y="379.5" as="sourcePoint" />
            <mxPoint x="200" y="379.5" as="targetPoint" />
          </mxGeometry>
        </mxCell>
        <mxCell id="yfFhtFqqx9GAyvI06Zvg-25" value="" style="endArrow=none;html=1;rounded=0;entryX=0;entryY=0.5;entryDx=0;entryDy=0;" edge="1" parent="1">
          <mxGeometry width="50" height="50" relative="1" as="geometry">
            <mxPoint x="140" y="459.5" as="sourcePoint" />
            <mxPoint x="200" y="459.5" as="targetPoint" />
          </mxGeometry>
        </mxCell>
        <mxCell id="yfFhtFqqx9GAyvI06Zvg-26" value="" style="endArrow=none;html=1;rounded=0;entryX=0;entryY=0.5;entryDx=0;entryDy=0;" edge="1" parent="1">
          <mxGeometry width="50" height="50" relative="1" as="geometry">
            <mxPoint x="140" y="539.5" as="sourcePoint" />
            <mxPoint x="200" y="539.5" as="targetPoint" />
          </mxGeometry>
        </mxCell>
        <mxCell id="yfFhtFqqx9GAyvI06Zvg-27" value="" style="endArrow=none;html=1;rounded=0;entryX=0;entryY=0.5;entryDx=0;entryDy=0;" edge="1" parent="1">
          <mxGeometry width="50" height="50" relative="1" as="geometry">
            <mxPoint x="140" y="340" as="sourcePoint" />
            <mxPoint x="360" y="339.5" as="targetPoint" />
          </mxGeometry>
        </mxCell>
        <mxCell id="yfFhtFqqx9GAyvI06Zvg-28" value="" style="endArrow=none;html=1;rounded=0;entryX=0;entryY=0.5;entryDx=0;entryDy=0;" edge="1" parent="1">
          <mxGeometry width="50" height="50" relative="1" as="geometry">
            <mxPoint x="140" y="420" as="sourcePoint" />
            <mxPoint x="360" y="419.5" as="targetPoint" />
          </mxGeometry>
        </mxCell>
        <mxCell id="yfFhtFqqx9GAyvI06Zvg-29" value="" style="endArrow=none;html=1;rounded=0;entryX=0;entryY=0.5;entryDx=0;entryDy=0;" edge="1" parent="1">
          <mxGeometry width="50" height="50" relative="1" as="geometry">
            <mxPoint x="140" y="500" as="sourcePoint" />
            <mxPoint x="360" y="499.5" as="targetPoint" />
          </mxGeometry>
        </mxCell>
        <mxCell id="yfFhtFqqx9GAyvI06Zvg-30" value="" style="endArrow=classic;html=1;rounded=0;entryX=0.5;entryY=1;entryDx=0;entryDy=0;" edge="1" parent="1">
          <mxGeometry width="50" height="50" relative="1" as="geometry">
            <mxPoint x="459.5" y="560" as="sourcePoint" />
            <mxPoint x="459.5" y="520" as="targetPoint" />
          </mxGeometry>
        </mxCell>
        <mxCell id="yfFhtFqqx9GAyvI06Zvg-31" value="" style="endArrow=none;html=1;rounded=0;entryX=0;entryY=0.5;entryDx=0;entryDy=0;" edge="1" parent="1">
          <mxGeometry width="50" height="50" relative="1" as="geometry">
            <mxPoint x="140" y="660" as="sourcePoint" />
            <mxPoint x="280" y="659.5" as="targetPoint" />
          </mxGeometry>
        </mxCell>
        <mxCell id="yfFhtFqqx9GAyvI06Zvg-32" value="" style="endArrow=none;html=1;rounded=0;entryX=0;entryY=0.5;entryDx=0;entryDy=0;" edge="1" parent="1">
          <mxGeometry width="50" height="50" relative="1" as="geometry">
            <mxPoint x="140" y="740" as="sourcePoint" />
            <mxPoint x="280" y="739.5" as="targetPoint" />
          </mxGeometry>
        </mxCell>
        <mxCell id="yfFhtFqqx9GAyvI06Zvg-33" value="" style="endArrow=none;html=1;rounded=0;entryX=0;entryY=0.5;entryDx=0;entryDy=0;" edge="1" parent="1">
          <mxGeometry width="50" height="50" relative="1" as="geometry">
            <mxPoint x="140" y="820" as="sourcePoint" />
            <mxPoint x="280" y="819.5" as="targetPoint" />
          </mxGeometry>
        </mxCell>
      </root>
    </mxGraphModel>
  </diagram>
</mxfile>
